<svg width="74" height="74" viewBox="0 0 74 74" fill="none" xmlns="http://www.w3.org/2000/svg">
<g id="Group 39">
<g id="Ellipse 57" style="mix-blend-mode:screen" filter="url(#filter0_d_70_228)">
<circle cx="37" cy="33" r="33" fill="url(#paint0_radial_70_228)" shape-rendering="crispEdges"/>
</g>
<path id="Vector" d="M27.4441 38.6842V45H25V21H48.3879C48.495 20.9998 48.6003 21.0287 48.6932 21.0839C48.7861 21.139 48.8633 21.2184 48.9172 21.3141C48.971 21.4098 48.9996 21.5184 49 21.6291C49.0004 21.7398 48.9727 21.8487 48.9195 21.9448L44.5531 29.8421L48.9195 37.7394C48.9727 37.8355 49.0004 37.9444 49 38.0551C48.9996 38.1658 48.971 38.2744 48.9172 38.3701C48.8633 38.4658 48.7861 38.5452 48.6932 38.6004C48.6003 38.6555 48.495 38.6844 48.3879 38.6842H27.4441ZM27.4441 23.5263V36.1579H45.2301L41.7374 29.8421L45.2301 23.5263H27.4441Z" fill="url(#paint1_linear_70_228)"/>
</g>
<defs>
<filter id="filter0_d_70_228" x="0" y="0" width="74" height="74" filterUnits="userSpaceOnUse" color-interpolation-filters="sRGB">
<feFlood flood-opacity="0" result="BackgroundImageFix"/>
<feColorMatrix in="SourceAlpha" type="matrix" values="0 0 0 0 0 0 0 0 0 0 0 0 0 0 0 0 0 0 127 0" result="hardAlpha"/>
<feOffset dy="4"/>
<feGaussianBlur stdDeviation="2"/>
<feComposite in2="hardAlpha" operator="out"/>
<feColorMatrix type="matrix" values="0 0 0 0 0 0 0 0 0 0 0 0 0 0 0 0 0 0 0.25 0"/>
<feBlend mode="normal" in2="BackgroundImageFix" result="effect1_dropShadow_70_228"/>
<feBlend mode="normal" in="SourceGraphic" in2="effect1_dropShadow_70_228" result="shape"/>
</filter>
<radialGradient id="paint0_radial_70_228" cx="0" cy="0" r="1" gradientUnits="userSpaceOnUse" gradientTransform="translate(37 33) rotate(90) scale(33)">
<stop stopOpacity="0"/>
<stop offset="0.713542" stopOpacity="0"/>
<stop offset="1" stopColor="#5318D1"/>
</radialGradient>
<linearGradient id="paint1_linear_70_228" x1="37" y1="45.0008" x2="37" y2="21" gradientUnits="userSpaceOnUse">
<stop stopColor="#775CF4"/>
<stop offset="1" stopColor="#C85EF7"/>
</linearGradient>
</defs>
</svg>
