<svg width="88" height="88" viewBox="0 0 88 88" fill="none" xmlns="http://www.w3.org/2000/svg">
<rect width="88" height="88" fill="#1E1E1E"/>
<g id="MAIN" clip-path="url(#clip0_0_1)">
<rect width="1920" height="13283" transform="translate(-1580 -2191)" fill="white"/>
<rect id="Rectangle 53" x="-1580" y="-2191" width="1920" height="13604" fill="black"/>
<g id="Vector 11" filter="url(#filter0_f_0_1)">
<path d="M946.463 -358.262C381.725 -161.301 -453.133 -139.085 -587.039 5.29927C-826.787 263.808 276.947 939.329 865.664 889.657C1418.09 843.047 3118.58 -904.988 2062.05 -902.717C1499.96 -901.509 1427.08 -525.885 946.463 -358.262Z" fill="#423D43"/>
</g>
<path id="Vector 10" opacity="0.35" d="M-2146.54 -523.262C-2711.27 -326.301 -3546.13 -304.085 -3680.04 -159.701C-3919.79 98.8083 -2816.05 774.329 -2227.34 724.657C-1674.91 678.047 25.5778 -1069.99 -1030.95 -1067.72C-1593.04 -1066.51 -1665.92 -690.885 -2146.54 -523.262Z" fill="#423D43"/>
<g id="Vector 12" opacity="0.35" filter="url(#filter2_f_0_1)">
<path d="M-652.537 954.738C-1217.27 1151.7 -2052.13 1173.92 -2186.04 1318.3C-2425.79 1576.81 -1322.05 2252.33 -733.336 2202.66C-180.907 2156.05 1519.58 408.012 463.05 410.283C-99.0418 411.491 -171.917 787.115 -652.537 954.738Z" fill="#423D43"/>
</g>
<g id="Ellipse 41" filter="url(#filter3_f_0_1)">
<circle cx="591" cy="703" r="750" fill="#5318D1"/>
</g>
<rect id="Rectangle 82" x="-538" y="-40" width="570" height="722" rx="50" fill="#5318D1"/>
<rect id="Rectangle 83" x="-607" y="-20" width="708" height="682" rx="50" fill="#0F0F0F"/>
<g id="Group 63">
<g id="Ellipse 63" style="mix-blend-mode:screen" filter="url(#filter4_d_0_1)">
<circle cx="44" cy="40" r="40" fill="url(#paint0_radial_0_1)" shape-rendering="crispEdges"/>
</g>
<path id="Coming Soon ..." d="M20.2257 33.016C21.8897 33.016 22.9777 32.072 23.3777 30.616H25.9697C25.5217 33.464 23.2498 35.24 20.2097 35.24C16.5777 35.24 14.1617 32.888 14.1617 29.384C14.1617 25.88 16.5777 23.544 20.2097 23.544C23.2498 23.544 25.5217 25.304 25.9697 28.168H23.3777C22.9777 26.696 21.8897 25.768 20.2257 25.768C18.1137 25.768 16.7057 27.224 16.7057 29.384C16.7057 31.56 18.1137 33.016 20.2257 33.016ZM31.4415 35.256C28.8015 35.256 27.0415 33.608 27.0415 31.128C27.0415 28.632 28.8015 26.984 31.4415 26.984C34.0815 26.984 35.8415 28.632 35.8415 31.128C35.8415 33.608 34.0815 35.256 31.4415 35.256ZM31.4415 33.272C32.7055 33.272 33.5535 32.424 33.5535 31.128C33.5535 29.832 32.7055 28.968 31.4415 28.968C30.1775 28.968 29.3295 29.832 29.3295 31.128C29.3295 32.424 30.1775 33.272 31.4415 33.272ZM37.1524 35V27.24H39.5204V27.992H39.5524C40.2084 27.304 41.0884 26.984 41.9524 26.984C42.8644 26.984 43.7604 27.368 44.3524 28.008C45.0884 27.32 46.0644 26.984 47.0244 26.984C49.1204 26.984 50.6244 28.44 50.6244 30.52V35H48.2084V30.84C48.2084 29.752 47.5684 29.032 46.5604 29.032C45.6804 29.032 45.1044 29.704 45.1044 30.76V35H42.6884V30.84C42.6884 29.752 42.0964 29.032 41.1684 29.032C40.1924 29.032 39.5524 29.704 39.5524 30.76V35H37.1524ZM52.1285 24.84V22.648H54.5925V24.84H52.1285ZM52.1605 35V27.24H54.5605V35H52.1605ZM56.2624 35V27.24H58.6304V27.992H58.6624C59.2544 27.336 60.1984 26.984 61.0624 26.984C63.0944 26.984 64.5344 28.44 64.5344 30.52V35H62.1184V30.84C62.1184 29.752 61.4624 29.032 60.4384 29.032C59.3664 29.032 58.6624 29.704 58.6624 30.76V35H56.2624ZM72.243 27.24H74.611V35.192C74.611 37.464 72.883 38.984 70.323 38.984C67.795 38.984 66.211 37.672 65.971 35.752H68.387C68.547 36.52 69.219 37.032 70.307 37.032C71.443 37.032 72.195 36.312 72.195 35.208V34.216H72.163C71.507 34.888 70.611 35.224 69.715 35.224C67.395 35.224 65.763 33.512 65.763 31.096C65.763 28.696 67.411 26.984 69.731 26.984C70.691 26.984 71.539 27.32 72.195 27.976H72.243V27.24ZM70.179 33.336C71.363 33.336 72.195 32.424 72.195 31.096C72.195 29.784 71.363 28.856 70.179 28.856C68.979 28.856 68.115 29.784 68.115 31.096C68.115 32.424 68.979 33.336 70.179 33.336ZM23.0787 54.24C20.0867 54.24 18.1347 52.784 17.8627 50.432H20.3587C20.5827 51.408 21.4947 52.224 23.0947 52.224C24.2627 52.224 25.0307 51.728 25.0147 50.976C24.9827 48.528 18.3587 50.688 18.2947 46.016C18.2787 43.936 20.0547 42.544 22.7427 42.544C25.4307 42.544 27.3827 43.936 27.6067 46.064H25.0787C24.8867 45.2 24.1987 44.528 22.9027 44.528C21.7667 44.528 20.9987 45.04 21.0147 45.856C21.0467 48.384 27.6227 46.272 27.6707 50.768C27.7027 52.864 25.8627 54.24 23.0787 54.24ZM33.2068 54.256C30.5668 54.256 28.8068 52.608 28.8068 50.128C28.8068 47.632 30.5668 45.984 33.2068 45.984C35.8468 45.984 37.6068 47.632 37.6068 50.128C37.6068 52.608 35.8468 54.256 33.2068 54.256ZM33.2068 52.272C34.4708 52.272 35.3188 51.424 35.3188 50.128C35.3188 48.832 34.4708 47.968 33.2068 47.968C31.9428 47.968 31.0948 48.832 31.0948 50.128C31.0948 51.424 31.9428 52.272 33.2068 52.272ZM42.9337 54.256C40.2937 54.256 38.5337 52.608 38.5337 50.128C38.5337 47.632 40.2937 45.984 42.9337 45.984C45.5737 45.984 47.3337 47.632 47.3337 50.128C47.3337 52.608 45.5737 54.256 42.9337 54.256ZM42.9337 52.272C44.1977 52.272 45.0457 51.424 45.0457 50.128C45.0457 48.832 44.1977 47.968 42.9337 47.968C41.6697 47.968 40.8217 48.832 40.8217 50.128C40.8217 51.424 41.6697 52.272 42.9337 52.272ZM48.6446 54V46.24H51.0126V46.992H51.0446C51.6366 46.336 52.5806 45.984 53.4446 45.984C55.4766 45.984 56.9166 47.44 56.9166 49.52V54H54.5006V49.84C54.5006 48.752 53.8446 48.032 52.8206 48.032C51.7486 48.032 51.0446 48.704 51.0446 49.76V54H48.6446ZM61.7593 51.488H64.4313V54H61.7593V51.488ZM65.1893 51.488H67.8613V54H65.1893V51.488ZM68.6193 51.488H71.2913V54H68.6193V51.488Z" fill="#5318D1"/>
</g>
</g>
<defs>
<filter id="filter0_f_0_1" x="-1020.59" y="-1302.72" width="3821.63" height="2594.98" filterUnits="userSpaceOnUse" color-interpolation-filters="sRGB">
<feFlood flood-opacity="0" result="BackgroundImageFix"/>
<feBlend mode="normal" in="SourceGraphic" in2="BackgroundImageFix" result="shape"/>
<feGaussianBlur stdDeviation="200" result="effect1_foregroundBlur_0_1"/>
</filter>
<filter id="filter2_f_0_1" x="-2619.59" y="10.2808" width="3821.63" height="2594.98" filterUnits="userSpaceOnUse" color-interpolation-filters="sRGB">
<feFlood flood-opacity="0" result="BackgroundImageFix"/>
<feBlend mode="normal" in="SourceGraphic" in2="BackgroundImageFix" result="shape"/>
<feGaussianBlur stdDeviation="200" result="effect1_foregroundBlur_0_1"/>
</filter>
<filter id="filter3_f_0_1" x="-659" y="-547" width="2500" height="2500" filterUnits="userSpaceOnUse" color-interpolation-filters="sRGB">
<feFlood flood-opacity="0" result="BackgroundImageFix"/>
<feBlend mode="normal" in="SourceGraphic" in2="BackgroundImageFix" result="shape"/>
<feGaussianBlur stdDeviation="250" result="effect1_foregroundBlur_0_1"/>
</filter>
<filter id="filter4_d_0_1" x="0" y="0" width="88" height="88" filterUnits="userSpaceOnUse" color-interpolation-filters="sRGB">
<feFlood flood-opacity="0" result="BackgroundImageFix"/>
<feColorMatrix in="SourceAlpha" type="matrix" values="0 0 0 0 0 0 0 0 0 0 0 0 0 0 0 0 0 0 127 0" result="hardAlpha"/>
<feOffset dy="4"/>
<feGaussianBlur stdDeviation="2"/>
<feComposite in2="hardAlpha" operator="out"/>
<feColorMatrix type="matrix" values="0 0 0 0 0 0 0 0 0 0 0 0 0 0 0 0 0 0 0.25 0"/>
<feBlend mode="normal" in2="BackgroundImageFix" result="effect1_dropShadow_0_1"/>
<feBlend mode="normal" in="SourceGraphic" in2="effect1_dropShadow_0_1" result="shape"/>
</filter>
<radialGradient id="paint0_radial_0_1" cx="0" cy="0" r="1" gradientUnits="userSpaceOnUse" gradientTransform="translate(44 40) rotate(90) scale(40)">
<stop stop-opacity="0"/>
<stop offset="0.713542" stop-opacity="0"/>
<stop offset="1" stop-color="#5318D1"/>
</radialGradient>
<clipPath id="clip0_0_1">
<rect width="1920" height="13283" fill="white" transform="translate(-1580 -2191)"/>
</clipPath>
</defs>
</svg>
