<svg width="18" height="15" viewBox="0 0 18 15" fill="none" xmlns="http://www.w3.org/2000/svg">
<g id="Capa_1" clip-path="url(#clip0_43_12803)">
<path id="Vector" d="M0.000287133 13.2985C1.63147 14.372 3.57607 15 5.66313 15C12.5226 15 16.3905 9.06282 16.1625 3.73907C16.882 3.20596 17.5088 2.5414 18.0074 1.78191C17.345 2.08133 16.6327 2.2858 15.8847 2.38074C16.6469 1.91336 17.231 1.16847 17.5088 0.284831C16.7965 0.715698 16.0058 1.03702 15.1653 1.20499C14.4886 0.467402 13.5341 0.00732422 12.4728 0.00732422C10.0866 0.00732422 8.33428 2.2858 8.87563 4.65922C5.79847 4.49126 3.07745 2.98688 1.25395 0.69379C0.28521 2.39535 0.755333 4.62271 2.39364 5.74734C1.78818 5.72543 1.21833 5.55747 0.719717 5.27266C0.676979 7.02534 1.90927 8.66847 3.68291 9.03361C3.16293 9.17967 2.59308 9.20888 2.01612 9.09934C2.48624 10.6037 3.84675 11.6991 5.46368 11.7284C3.91085 12.9771 1.95913 13.5322 -0.00683594 13.2985H0.000287133Z" fill="white"/>
</g>
<defs>
<clipPath id="clip0_43_12803">
<rect width="18" height="15" fill="white"/>
</clipPath>
</defs>
</svg>
