<svg width="18" height="15" viewBox="0 0 18 15" fill="none" xmlns="http://www.w3.org/2000/svg">
<g clip-path="url(#clip0_43_12806)">
<path d="M15.3768 2.15303e-05C12.8809 -0.0772981 11.1947 1.27579 10.3047 4.07219C10.7597 3.88533 11.208 3.78868 11.6363 3.78868C12.553 3.78868 12.9545 4.28482 12.8474 5.27708C12.7939 5.87631 12.3924 6.74616 11.6363 7.89306C10.8802 9.03997 10.3181 9.61342 9.93666 9.61342C9.44818 9.61342 9.00655 8.73069 8.60506 6.96523C8.47123 6.44332 8.22365 5.12244 7.87569 2.98971C7.5545 1.01162 6.69131 0.0902277 5.29279 0.219094C4.69725 0.27064 3.80729 0.792547 2.6229 1.77837C1.75971 2.53224 0.883127 3.2861 -0.00683594 4.03353L0.842978 5.08378C1.65264 4.54255 2.12105 4.26549 2.25487 4.26549C2.87049 4.26549 3.45264 5.19976 3.98796 7.06832C4.46974 8.77579 4.95822 10.4897 5.44 12.1972C6.16268 14.0657 7.05264 14.9936 8.1032 14.9936C9.79614 14.9936 11.8638 13.4601 14.3129 10.3995C16.6816 7.4678 17.9062 5.15466 17.9865 3.46652C18.0935 1.21136 17.2236 0.0580112 15.3768 2.15303e-05Z" fill="white"/>
</g>
<defs>
<clipPath id="clip0_43_12806">
<rect width="18" height="15" fill="white"/>
</clipPath>
</defs>
</svg>
